<svg width="1263" height="986" viewBox="0 0 1263 986" fill="none" xmlns="http://www.w3.org/2000/svg">
<path opacity="0.5" d="M269.838 73.6266C168.175 158.997 152.42 320.427 83.5674 439.519C59.5991 480.959 28.6287 518.046 12.4703 564.018C-24.6268 669.245 26.4294 788.606 94.7661 872.182C127.352 912.051 165.414 948.578 211.466 965.383C246.88 978.306 284.852 978.844 322.129 979.181L975.199 985.912C1048.11 986.652 1129.13 983.982 1181.56 927.577C1217.69 888.74 1232.37 832.021 1244.82 777.882C1260.13 711.358 1274 639.113 1250.18 575.753C1222.98 503.261 1154.2 462.18 1111.47 399.627C1042.12 298.282 1043.72 144.997 955.405 64.0912C914.179 26.3308 859.778 11.5228 806.77 4.11876C706.834 -9.8591 612.173 16.5261 514.033 12.8465C430.144 9.70542 339.432 15.1799 269.838 73.6266Z" fill="#E7ECFF"/>
</svg>
